HIERARCHY
ROOT hip
{
	OFFSET 0.000000 0.000000 0.000000 
	CHANNELS 6 Xposition Yposition Zposition Xrotation Zrotation Yrotation
	JOINT abdomen
	{
		OFFSET 0.000000 3.402643 0.000000 
		CHANNELS 3 Xrotation Zrotation Yrotation
		JOINT chest
		{
			OFFSET 0.000000 8.438565 -0.680529 
			CHANNELS 3 Xrotation Zrotation Yrotation
			JOINT neck
			{
				OFFSET 0.000000 10.207942 -0.272212 
				CHANNELS 3 Xrotation Zrotation Yrotation
				JOINT head
				{
					OFFSET 0.000000 3.130431 0.000000 
					CHANNELS 3 Xrotation Zrotation Yrotation
					End Site
					{
						OFFSET 0.000000 3.130435 0.000000 
					}
				}
			}
			JOINT lCollar
			{
				OFFSET 3.470700 6.669187 -0.816635 
				CHANNELS 3 Yrotation Zrotation Xrotation
				JOINT lShldr
				{
					OFFSET 3.198488 0.000000 0.000000 
					CHANNELS 3 Zrotation Yrotation Xrotation
					JOINT lForeArm
					{
						OFFSET 10.139888 0.000000 0.000000 
						CHANNELS 3 Yrotation Zrotation Xrotation
						JOINT lHand
						{
							OFFSET 8.370511 0.000000 0.000000 
							CHANNELS 3 Zrotation Yrotation Xrotation
							End Site
							{
								OFFSET 4.083176 0.000000 0.000000 
							}
						}
					}
				}
			}
			JOINT rCollar
			{
				OFFSET -3.470700 6.669187 -0.816635 
				CHANNELS 3 Yrotation Zrotation Xrotation
				JOINT rShldr
				{
					OFFSET -3.198488 0.000000 0.000000 
					CHANNELS 3 Zrotation Yrotation Xrotation
					JOINT rForeArm
					{
						OFFSET -10.139888 0.000000 0.000000 
						CHANNELS 3 Yrotation Zrotation Xrotation
						JOINT rHand
						{
							OFFSET -8.370511 0.000000 0.000000 
							CHANNELS 3 Zrotation Yrotation Xrotation
							End Site
							{
								OFFSET -4.083176 0.000000 0.000000 
							}
						}
					}
				}
			}
		}
	}
	JOINT lThigh
	{
		OFFSET 5.308129 -1.633274 1.361059 
		CHANNELS 3 Xrotation Zrotation Yrotation
		JOINT lShin
		{
			OFFSET -2.041588 -20.007561 0.000000 
			CHANNELS 3 Xrotation Zrotation Yrotation
			JOINT lFoot
			{
				OFFSET 0.000000 -19.190928 -1.224953 
				CHANNELS 3 Xrotation Yrotation Zrotation
				End Site
				{
					OFFSET 0.000000 -2.449906 4.627600 
				}
			}
		}
	}
	JOINT rThigh
	{
		OFFSET -5.308129 -1.633274 1.361059 
		CHANNELS 3 Xrotation Zrotation Yrotation
		JOINT rShin
		{
			OFFSET 2.041588 -20.007561 0.000000 
			CHANNELS 3 Xrotation Zrotation Yrotation
			JOINT rFoot
			{
				OFFSET 0.000000 -19.190928 -1.224953 
				CHANNELS 3 Xrotation Yrotation Zrotation
				End Site
				{
					OFFSET 0.000000 -2.449906 4.627600 
				}
			}
		}
	}
}
MOTION
Frames: 14
Frame Time: 0.011111
27.315290 52.092529 -131.823563 -0.824764 3.308360 -156.460770 22.565435 -1.462021 6.427770 -32.903919 -2.794494 1.919803 -23.232058 0.614369 3.082967 27.069397 -3.870753 5.091027 -10.256527 -0.734681 -0.809317 -62.169598 -13.485492 28.277515 -46.299953 6.757276 6.697710 8.524705 12.647240 -79.427139 6.318032 -3.285348 0.526703 58.907261 31.093283 30.538603 45.290962 -6.477161 6.321530 -8.534408 -12.637552 20.814314 -4.269695 -1.059515 -12.437867 31.927893 -5.228644 -5.135583 -36.572620 6.345882 3.588328 -1.901864 -5.208107 0.645836 34.808712 5.018921 5.448864 -42.435341 -19.179409 -13.850278 
27.212206 52.106895 -131.865921 -0.861580 3.541418 -155.255188 22.525465 -1.282228 7.083192 -32.815731 -2.859975 2.083523 -21.720015 2.549892 2.632854 25.038780 -7.004384 4.595327 -10.256527 -0.734681 -0.809317 -62.298737 -11.138372 29.480490 -46.568035 6.828648 6.797756 8.524705 12.647240 -79.007217 6.318032 -3.285348 0.526703 59.968678 29.802738 31.867252 45.321922 -6.486080 6.329792 -8.534408 -12.637552 20.540874 -4.232514 -1.040730 -13.321472 31.559189 -5.253412 -5.070285 -36.153336 6.279797 3.404029 -2.612721 -5.157313 -0.265333 36.386093 4.915804 5.653546 -41.153858 -19.613306 -13.295729 
27.103737 52.128803 -131.909378 -0.879995 3.522162 -154.132751 22.602007 -1.380129 7.811334 -32.697678 -2.890677 2.289306 -23.160275 0.706839 3.457845 27.110771 -4.034274 5.847541 -10.256527 -0.734681 -0.809317 -62.460686 -8.995681 30.075167 -46.691994 6.862053 6.843683 8.524705 12.647240 -78.997452 6.318032 -3.285348 0.526703 60.883167 28.605139 33.337749 45.425110 -6.518781 6.373817 -8.534408 -12.637552 20.199078 -3.943896 -1.249387 -14.211703 31.140789 -5.273244 -5.018632 -35.929142 6.404749 3.402444 -3.348106 -5.358475 -1.019006 38.101410 4.794617 5.834064 -40.674244 -19.849604 -13.104025 
27.025082 52.151073 -131.991272 -1.089695 3.287516 -153.084244 22.526922 -2.030826 8.455286 -32.587189 -2.652316 2.512985 -22.214195 1.952000 3.204831 25.774763 -6.172488 5.578950 -10.256527 -0.734681 -0.809317 -62.659916 -7.166832 29.595516 -46.578598 6.833830 6.806262 8.524705 12.647240 -79.524796 6.318032 -3.285348 0.526703 61.756557 27.423403 34.588573 45.578743 -6.557216 6.429179 -8.534408 -12.637552 19.300640 -3.640409 -1.638783 -14.961029 30.562731 -5.302217 -4.935835 -35.551769 6.320792 3.220009 -4.354097 -5.857285 -1.812531 40.000942 4.648031 6.077576 -39.229816 -20.583500 -12.599516 
26.953245 52.143890 -132.051971 -1.181149 2.964725 -151.899826 22.731272 -2.679953 8.939106 -32.535667 -2.427546 2.703371 -22.749020 2.155069 3.444553 26.328339 -6.032583 6.209310 -10.256527 -0.734681 -0.809317 -62.853859 -5.406664 28.370230 -46.651237 6.855416 6.833440 8.524705 12.647240 -80.315804 6.318032 -3.285348 0.526703 62.617783 26.457556 36.130348 45.743961 -6.606847 6.490385 -8.534408 -12.637552 18.577984 -3.182900 -2.050303 -15.610242 29.970665 -5.351372 -4.865839 -34.893051 6.215221 2.952631 -5.222203 -6.451575 -2.782933 42.006111 4.508125 6.280123 -38.194614 -20.374329 -11.889150 
26.877821 52.148922 -132.102615 -1.257816 2.451698 -150.446030 23.126701 -3.349126 9.067816 -32.494595 -2.215789 2.807615 -22.598665 2.686973 3.481137 26.287451 -6.503428 6.473961 -10.256527 -0.734681 -0.809317 -62.605186 -3.819761 28.405975 -46.464378 6.798662 6.761967 8.524705 12.647240 -79.700577 6.318032 -3.285348 0.526703 63.379265 25.727083 38.614452 46.001827 -6.682893 6.596966 -8.534408 -12.637552 18.929546 -2.597470 -2.576956 -16.239506 29.371193 -5.380327 -4.790505 -33.969433 6.174683 2.646706 -5.913777 -7.113339 -3.370160 43.831604 4.335793 6.519429 -37.263519 -20.242458 -11.281343 
26.743851 52.143173 -132.085022 -1.404622 2.235656 -148.862442 23.371756 -3.395943 9.382273 -32.554111 -2.472900 2.918711 -22.443172 3.397617 3.521157 26.304222 -7.269994 6.755531 -10.256527 -0.734681 -0.809317 -62.314636 -2.167030 27.864996 -46.330978 6.765648 6.706348 8.524705 12.647240 -79.388077 6.318032 -3.285348 0.526703 64.185448 25.090818 40.881847 46.218487 -6.743471 6.677567 -8.534408 -12.637552 19.417826 -2.363138 -2.953079 -16.900488 29.010880 -5.400014 -4.743496 -33.262970 5.794058 2.230357 -6.734519 -7.690335 -4.135768 45.575546 4.189241 6.708833 -35.188633 -20.807701 -10.379877 
26.685661 52.202438 -132.184158 -1.235390 2.526771 -147.457870 23.398083 -3.260056 9.956970 -32.533165 -2.403568 3.055330 -22.187349 4.266417 3.539086 26.358912 -8.128496 7.026697 -10.256527 -0.734681 -0.809317 -61.705917 -0.393009 27.996651 -46.485695 6.808466 6.770360 8.524705 12.647240 -78.509163 6.318032 -3.285348 0.526703 65.168755 24.633045 42.486687 46.331818 -6.772391 6.714515 -8.534408 -12.637552 19.896341 -2.255485 -2.558719 -17.427799 28.652391 -5.411258 -4.675910 -32.857582 4.958967 1.672135 -7.215345 -7.127257 -3.625985 46.924671 4.062267 6.850606 -34.243912 -21.314453 -10.070049 
26.635019 52.162567 -132.290817 -1.469298 2.751908 -146.190536 22.942598 -3.485993 10.608105 -32.277142 -2.271175 3.230392 -22.019327 4.633332 3.601848 26.348530 -8.488825 7.255264 -10.256527 -0.734681 -0.809317 -60.707699 1.264872 29.089939 -46.753880 6.878955 6.871003 8.524705 12.647240 -77.386116 6.318032 -3.285348 0.526703 66.081772 24.345104 43.946125 46.455509 -6.806907 6.769850 -8.534408 -12.637552 20.531107 -2.578051 -2.449192 -17.695190 28.509815 -5.428964 -4.676598 -32.399868 4.099973 1.056237 -8.268806 -7.380066 -4.308405 48.271267 3.954980 6.997327 -32.112007 -20.442204 -8.623592 
26.601618 52.202438 -132.358002 -1.638259 2.685440 -144.893936 23.068903 -3.938352 11.309875 -32.333530 -2.222286 3.472370 -21.909912 4.616125 3.689970 26.194963 -8.511393 7.432474 -10.256527 -0.734681 -0.809317 -60.111252 2.271579 27.528967 -46.207108 6.731450 6.660972 8.524705 12.647240 -78.694717 6.318032 -3.285348 0.526703 66.889153 24.134087 45.235527 46.528141 -6.828650 6.795764 -8.534408 -12.637552 21.048687 -2.646042 -2.537939 -17.876549 28.330500 -5.428616 -4.670467 -31.783438 3.374456 0.521643 -9.012616 -7.469736 -3.928837 49.244427 3.857424 7.105710 -30.101097 -19.595280 -7.326254 
26.581146 52.166161 -132.415466 -1.675127 2.647485 -143.261993 23.300484 -4.146903 11.802411 -32.331779 -2.131685 3.616866 -22.134747 4.903340 3.979398 26.840473 -8.474788 8.149810 -10.256527 -0.734681 -0.809317 -59.098801 3.600481 28.185400 -46.744167 6.880503 6.869530 8.524705 12.647240 -77.649788 6.318032 -3.285348 0.526703 67.587555 24.156935 46.542809 46.600780 -6.850292 6.821745 -8.534408 -12.637552 21.888529 -2.724175 -2.560942 -18.074528 28.269606 -5.439194 -4.647418 -30.982128 2.727858 -0.018086 -9.607356 -7.644679 -4.290491 50.149414 3.759736 7.177895 -27.623419 -18.314186 -5.728357 
26.539122 52.199203 -132.472214 -1.643310 2.646047 -141.492538 23.512754 -4.154487 12.085989 -32.173515 -1.836128 3.675044 -21.845333 4.784806 4.153264 26.258049 -8.770655 8.396112 -10.256527 -0.734681 -0.809317 -58.430641 4.506769 27.537323 -46.682285 6.863595 6.842212 8.524705 12.647240 -78.499397 6.318032 -3.285348 0.526703 67.918144 24.402643 48.180187 46.797215 -6.905584 6.904829 -8.534408 -12.637552 23.099468 -2.743495 -2.521515 -18.325809 28.200323 -5.438925 -4.631520 -30.111958 2.020941 -0.564813 -9.986925 -7.399607 -3.728672 50.747044 3.720697 7.258926 -26.929560 -17.072262 -5.033120 
26.484528 52.222549 -132.531479 -1.661296 2.698354 -139.706192 23.755325 -3.988767 12.485106 -32.369808 -2.230245 3.801258 -21.773623 4.817934 4.334017 26.312481 -8.524835 8.825058 -10.256527 -0.734681 -0.809317 -57.102482 5.652062 26.959717 -46.558327 6.830176 6.796291 8.524705 12.647240 -79.583382 6.318032 -3.285348 0.526703 68.731819 24.498857 49.668953 47.055874 -6.976111 7.005043 -8.534408 -12.637552 24.144390 -2.948404 -2.524191 -18.735367 28.330500 -5.428616 -4.670468 -29.375664 1.094797 -1.191827 -10.444932 -7.135497 -3.170009 51.218555 3.662093 7.310540 -27.463345 -15.552038 -4.697251 
26.447893 52.192379 -132.596130 -1.635053 2.802002 -137.792953 23.919142 -3.765506 12.779591 -32.399693 -2.415661 3.869971 -21.808006 4.887705 4.576824 26.490995 -8.466055 9.361929 -10.256527 -0.734681 -0.809317 -55.708302 6.664274 26.783363 -46.589149 6.839012 6.814771 8.524705 12.647240 -79.827530 6.318032 -3.285348 0.526703 69.231239 24.774857 51.324879 47.387421 -7.065994 7.133947 -8.534408 -12.637552 25.208841 -3.241270 -2.468037 -19.173803 28.450142 -5.428928 -4.671337 -28.620611 0.228035 -1.747753 -10.913643 -6.969651 -3.325648 51.631390 3.613341 7.342336 -27.800913 -14.608369 -4.486181 
